<?xml version="1.0" encoding="iso-8859-1"?>
<!-- Generator: Adobe Illustrator 19.0.0, SVG Export Plug-In . SVG Version: 6.00 Build 0)  -->
<svg version="1.1" xmlns="http://www.w3.org/2000/svg" xmlns:xlink="http://www.w3.org/1999/xlink" x="0px" y="0px"
	 viewBox="0 0 50.585 17.257" style="enable-background:new 0 0 50.585 17.257;" xml:space="preserve">
<g id="Layer_2" style="display:none;">
	<rect id="XMLID_2_" x="-0.907" y="-1.333" style="display:inline;" width="94.186" height="57.233"/>
</g>
<g id="Layer_1">
	<g id="XMLID_19_">
		<path id="XMLID_20_" style="fill:#FFFFFF;" d="M14.043,10.608c0,0.434-0.082,0.816-0.246,1.148s-0.385,0.605-0.662,0.82
			c-0.328,0.258-0.688,0.441-1.081,0.551s-0.892,0.164-1.497,0.164H7.463V4.567h2.584c0.637,0,1.113,0.023,1.43,0.07
			s0.619,0.145,0.908,0.293c0.32,0.168,0.553,0.384,0.697,0.647s0.217,0.579,0.217,0.946c0,0.414-0.105,0.767-0.316,1.058
			s-0.492,0.524-0.844,0.7v0.047c0.59,0.121,1.055,0.38,1.395,0.776S14.043,10.002,14.043,10.608z M12.091,6.676
			c0-0.211-0.035-0.389-0.105-0.533s-0.184-0.262-0.34-0.352c-0.184-0.105-0.406-0.171-0.668-0.196s-0.586-0.038-0.973-0.038H8.623
			v2.52h1.5c0.363,0,0.652-0.019,0.867-0.056s0.414-0.114,0.598-0.231s0.313-0.269,0.39-0.454S12.091,6.93,12.091,6.676z
			 M12.836,10.655c0-0.352-0.053-0.631-0.158-0.838s-0.297-0.383-0.574-0.527c-0.188-0.098-0.415-0.161-0.683-0.19
			s-0.593-0.044-0.976-0.044H8.623v3.246h1.535c0.508,0,0.924-0.026,1.248-0.079s0.59-0.149,0.797-0.29
			c0.219-0.152,0.379-0.326,0.48-0.521S12.836,10.963,12.836,10.655z"/>
		<path id="XMLID_24_" style="fill:#FFFFFF;" d="M22.568,13.291h-1.236l-0.855-2.432h-3.773l-0.855,2.432H14.67l3.176-8.725h1.547
			L22.568,13.291z M20.119,9.864L18.59,5.58l-1.535,4.283H20.119z"/>
		<path id="XMLID_27_" style="fill:#FFFFFF;" d="M30.174,10.801c0,0.34-0.079,0.676-0.237,1.008s-0.38,0.613-0.665,0.844
			c-0.312,0.25-0.677,0.445-1.093,0.586s-0.917,0.211-1.503,0.211c-0.629,0-1.194-0.059-1.696-0.176s-1.013-0.291-1.532-0.521
			v-1.453h0.082c0.441,0.367,0.951,0.65,1.529,0.85s1.121,0.299,1.629,0.299c0.719,0,1.278-0.135,1.679-0.404
			s0.601-0.629,0.601-1.078c0-0.387-0.095-0.672-0.284-0.855s-0.478-0.326-0.864-0.428c-0.293-0.078-0.61-0.143-0.952-0.193
			s-0.704-0.115-1.087-0.193c-0.773-0.164-1.347-0.444-1.72-0.841s-0.56-0.913-0.56-1.55c0-0.73,0.309-1.329,0.926-1.796
			s1.4-0.7,2.35-0.7c0.613,0,1.176,0.059,1.688,0.176s0.965,0.262,1.359,0.434v1.371H29.74c-0.332-0.281-0.769-0.515-1.31-0.7
			S27.336,5.41,26.769,5.41c-0.621,0-1.12,0.129-1.497,0.387s-0.565,0.59-0.565,0.996c0,0.363,0.094,0.648,0.281,0.855
			s0.518,0.365,0.99,0.475c0.25,0.055,0.605,0.121,1.066,0.199s0.852,0.158,1.172,0.24c0.648,0.172,1.137,0.432,1.465,0.779
			S30.174,10.176,30.174,10.801z"/>
		<path id="XMLID_29_" style="fill:#FFFFFF;" d="M35.113,13.291h-3.445v-0.891h1.143V5.457h-1.143V4.567h3.445v0.891H33.97v6.943
			h1.143V13.291z"/>
		<path id="XMLID_31_" style="fill:#FFFFFF;" d="M43.826,12.658c-0.215,0.094-0.409,0.182-0.583,0.264s-0.401,0.168-0.683,0.258
			c-0.238,0.074-0.497,0.138-0.776,0.19s-0.587,0.079-0.923,0.079c-0.633,0-1.208-0.089-1.726-0.267s-0.968-0.456-1.351-0.835
			c-0.375-0.371-0.668-0.843-0.879-1.415S36.59,9.696,36.59,8.938c0-0.719,0.102-1.361,0.305-1.928s0.496-1.045,0.879-1.436
			c0.371-0.379,0.819-0.668,1.345-0.867s1.108-0.299,1.749-0.299c0.469,0,0.937,0.057,1.403,0.17s0.985,0.312,1.556,0.598v1.377
			h-0.088c-0.48-0.402-0.957-0.695-1.43-0.879s-0.979-0.275-1.518-0.275c-0.441,0-0.839,0.071-1.192,0.214s-0.669,0.364-0.946,0.665
			c-0.27,0.293-0.479,0.663-0.63,1.11s-0.226,0.964-0.226,1.55c0,0.613,0.083,1.141,0.249,1.582s0.38,0.801,0.642,1.078
			c0.273,0.289,0.593,0.503,0.958,0.642s0.751,0.208,1.157,0.208c0.559,0,1.082-0.096,1.57-0.287s0.945-0.479,1.371-0.861h0.082
			V12.658z"/>
	</g>
	<path id="XMLID_3_" style="fill:none;stroke:#FFFFFF;stroke-miterlimit:10;" d="M42.706,16.757H7.879
		c-4.058,0-7.379-3.321-7.379-7.379v-1.5C0.5,3.821,3.821,0.5,7.879,0.5h34.827c4.058,0,7.379,3.321,7.379,7.379v1.5
		C50.085,13.437,46.765,16.757,42.706,16.757z"/>
</g>
</svg>
