<?xml version="1.0" encoding="utf-8"?>
<!-- Generator: Adobe Illustrator 19.0.0, SVG Export Plug-In . SVG Version: 6.00 Build 0)  -->
<svg version="1.1" id="Layer_1" xmlns="http://www.w3.org/2000/svg" xmlns:xlink="http://www.w3.org/1999/xlink" x="0px" y="0px"
	 viewBox="-285 409.9 24 13.7" style="enable-background:new -285 409.9 24 13.7;" xml:space="preserve">
<style type="text/css">
	.st0{fill:#FFFFFF;}
</style>
<g>
	<path class="st0" d="M-273.1,416.3c0.1,0,0.1-0.1,0.1-0.1c0-0.2,0-0.4,0-0.6c0-0.2,0-0.4,0-0.7c0-0.1,0-0.1-0.1-0.1
		c-0.1,0-0.1,0.1-0.1,0.1c0,0.4,0,0.9,0,1.3C-273.2,416.2-273.2,416.3-273.1,416.3L-273.1,416.3z"/>
	<path class="st0" d="M-270.4,416.3c0.1,0,0.1-0.1,0.1-0.1c0-0.2,0-0.4,0-0.6c0-0.2,0-0.4,0-0.7c0-0.1,0-0.1-0.1-0.1
		c-0.1,0-0.1,0.1-0.1,0.1c0,0.4,0,0.9,0,1.3C-270.5,416.2-270.5,416.3-270.4,416.3L-270.4,416.3z"/>
	<path class="st0" d="M-272,416.3c0.1,0,0.1-0.1,0.1-0.1c0-0.4,0-0.9,0-1.3c0-0.1,0-0.1-0.1-0.1c-0.1,0-0.1,0.1-0.1,0.1
		c0,0.2,0,0.4,0,0.7c0,0.2,0,0.4,0,0.6C-272.1,416.2-272.1,416.3-272,416.3L-272,416.3z"/>
	<path class="st0" d="M-272.6,416.3c0.1,0,0.1-0.1,0.1-0.1c0-0.4,0-0.9,0-1.3c0-0.1,0-0.1-0.1-0.1c-0.1,0-0.1,0.1-0.1,0.1
		c0,0.2,0,0.4,0,0.6s0,0.4,0,0.6C-272.6,416.2-272.7,416.3-272.6,416.3z"/>
	<path class="st0" d="M-273.1,412.7c0,0,0-0.1-0.1-0.1c-0.1,0-0.1,0.1-0.1,0.1c0,0.2,0,0.4,0,0.6c0,0.2,0,0.4,0,0.6
		c0,0,0,0.1,0.1,0.1c0.1,0,0.1-0.1,0.1-0.1C-273.1,413.6-273.1,413.1-273.1,412.7z"/>
	<path class="st0" d="M-272.3,416.3c0.1,0,0.1-0.1,0.1-0.1c0-0.4,0-0.9,0-1.3c0-0.1,0-0.1-0.1-0.1c-0.1,0-0.1,0.1-0.1,0.1
		c0,0.2,0,0.4,0,0.6s0,0.4,0,0.6C-272.4,416.2-272.4,416.3-272.3,416.3L-272.3,416.3z"/>
	<path class="st0" d="M-272.9,415.5c0,0.2,0,0.4,0,0.6c0,0,0,0.1,0.1,0.1c0.1,0,0.1-0.1,0.1-0.1c0-0.4,0-0.9,0-1.3
		c0-0.1,0-0.1-0.1-0.1c-0.1,0-0.1,0.1-0.1,0.1C-272.9,415.1-272.9,415.3-272.9,415.5L-272.9,415.5z"/>
	<path class="st0" d="M-270.2,416.2c0,0.1,0,0.1,0.1,0.1c0.1,0,0.1-0.1,0.1-0.1c0-0.4,0-0.9,0-1.3c0-0.1,0-0.1-0.1-0.1
		c-0.1,0-0.1,0.1-0.1,0.1c0,0.2,0,0.4,0,0.7C-270.2,415.7-270.2,416-270.2,416.2z"/>
	<path class="st0" d="M-275.3,414.2c0.1,0,0.1-0.1,0.1-0.1c0-0.4,0-0.9,0-1.3c0-0.1,0-0.1-0.1-0.1c-0.1,0-0.1,0.1-0.1,0.1
		c0,0.2,0,0.4,0,0.6c0,0.2,0,0.4,0,0.7C-275.4,414.1-275.4,414.2-275.3,414.2L-275.3,414.2z"/>
	<path class="st0" d="M-274.2,414c0,0,0,0.1,0.1,0.1c0.1,0,0.1,0,0.1-0.1c0-0.4,0-0.9,0-1.3c0-0.1,0-0.1-0.1-0.1
		c-0.1,0-0.1,0.1-0.1,0.1c0,0.2,0,0.4,0,0.7C-274.2,413.6-274.2,413.8-274.2,414L-274.2,414z"/>
	<path class="st0" d="M-275.3,414.8c-0.1,0-0.1,0.1-0.1,0.1c0,0.2,0,0.4,0,0.7s0,0.4,0,0.6c0,0,0,0.1,0.1,0.1c0.1,0,0.1-0.1,0.1-0.1
		c0-0.4,0-0.9,0-1.3C-275.2,414.8-275.2,414.8-275.3,414.8z"/>
	<path class="st0" d="M-275,414.2c0.1,0,0.1-0.1,0.1-0.1c0-0.4,0-0.9,0-1.3c0-0.1,0-0.1-0.1-0.1c-0.1,0-0.1,0.1-0.1,0.1
		c0,0.2,0,0.4,0,0.6c0,0.2,0,0.4,0,0.7C-275.1,414.1-275.1,414.2-275,414.2L-275,414.2z"/>
	<path class="st0" d="M-274.5,414c0,0,0,0.1,0.1,0.1s0.1,0,0.1-0.1c0-0.4,0-0.9,0-1.3c0-0.1,0-0.1-0.1-0.1c-0.1,0-0.1,0.1-0.1,0.1
		c0,0.2,0,0.4,0,0.6C-274.5,413.6-274.5,413.8-274.5,414z"/>
	<path class="st0" d="M-274.7,414.2c0.1,0,0.1-0.1,0.1-0.1c0-0.4,0-0.9,0-1.3c0-0.1,0-0.1-0.1-0.1c-0.1,0-0.1,0.1-0.1,0.1
		c0,0.2,0,0.4,0,0.6c0,0.2,0,0.4,0,0.7C-274.8,414.1-274.8,414.2-274.7,414.2L-274.7,414.2z"/>
	<path class="st0" d="M-272.6,411.9c0,0,0,0.1,0.1,0.1c0.1,0,0.1-0.1,0.1-0.1c0-0.2,0-0.4,0-0.6c0-0.2,0-0.4,0-0.6
		c0-0.1,0-0.1-0.1-0.1c-0.1,0-0.1,0.1-0.1,0.1C-272.6,411-272.6,411.4-272.6,411.9L-272.6,411.9z"/>
	<path class="st0" d="M-271.7,412.7c0,0,0-0.1-0.1-0.1c-0.1,0-0.1,0.1-0.1,0.1c0,0.2,0,0.4,0,0.6c0,0.2,0,0.4,0,0.7
		c0,0,0,0.1,0.1,0.1c0.1,0,0.1-0.1,0.1-0.1C-271.7,413.6-271.7,413.1-271.7,412.7L-271.7,412.7z"/>
	<path class="st0" d="M-271,416.3c0.1,0,0.1-0.1,0.1-0.1c0-0.2,0-0.4,0-0.7s0-0.4,0-0.7c0-0.1,0-0.1-0.1-0.1c-0.1,0-0.1,0.1-0.1,0.1
		c0,0.4,0,0.9,0,1.3C-271.1,416.3-271.1,416.3-271,416.3L-271,416.3z"/>
	<path class="st0" d="M-272,412.6c-0.1,0-0.1,0.1-0.1,0.1c0,0.2,0,0.4,0,0.6c0,0.2,0,0.4,0,0.7c0,0,0,0.1,0.1,0.1
		c0.1,0,0.1,0,0.1-0.1c0-0.4,0-0.9,0-1.3C-271.9,412.7-271.9,412.6-272,412.6L-272,412.6z"/>
	<path class="st0" d="M-272.9,412.6c-0.1,0-0.1,0.1-0.1,0.1c0,0.2,0,0.4,0,0.6c0,0.2,0,0.4,0,0.7c0,0,0,0.1,0.1,0.1
		c0.1,0,0.1,0,0.1-0.1c0-0.4,0-0.9,0-1.3C-272.8,412.7-272.8,412.6-272.9,412.6L-272.9,412.6z"/>
	<path class="st0" d="M-271.8,411.2c0,0.2,0,0.4,0,0.6c0,0,0,0.1,0.1,0.1c0.1,0,0.1-0.1,0.1-0.1c0-0.4,0-0.9,0-1.3
		c0,0,0-0.1-0.1-0.1c-0.1,0-0.1,0.1-0.1,0.1C-271.8,410.8-271.8,411-271.8,411.2L-271.8,411.2z"/>
	<path class="st0" d="M-272.6,412.6c-0.1,0-0.1,0.1-0.1,0.1c0,0.2,0,0.4,0,0.6c0,0.2,0,0.4,0,0.7c0,0.1,0,0.1,0.1,0.1
		c0.1,0,0.1-0.1,0.1-0.1c0-0.4,0-0.9,0-1.3C-272.5,412.7-272.5,412.6-272.6,412.6L-272.6,412.6z"/>
	<path class="st0" d="M-272.3,412.6c-0.1,0-0.1,0.1-0.1,0.1c0,0.2,0,0.4,0,0.6c0,0.2,0,0.4,0,0.7c0,0.1,0,0.1,0.1,0.1
		c0.1,0,0.1-0.1,0.1-0.1c0-0.4,0-0.9,0-1.3C-272.2,412.7-272.2,412.6-272.3,412.6L-272.3,412.6z"/>
	<path class="st0" d="M-271.8,416.2c0,0,0,0.1,0.1,0.1c0.1,0,0.1-0.1,0.1-0.1c0-0.2,0-0.4,0-0.6c0-0.2,0-0.4,0-0.6
		c0,0,0-0.1-0.1-0.1c-0.1,0-0.1,0.1-0.1,0.1C-271.8,415.3-271.8,415.8-271.8,416.2L-271.8,416.2z"/>
	<path class="st0" d="M-273.1,412c0.1,0,0.1-0.1,0.1-0.1c0-0.2,0-0.4,0-0.6c0-0.2,0-0.4,0-0.7c0,0,0-0.1-0.1-0.1
		c-0.1,0-0.1,0.1-0.1,0.1c0,0.4,0,0.9,0,1.3C-273.2,411.9-273.2,412-273.1,412L-273.1,412L-273.1,412z"/>
	<path class="st0" d="M-272.9,411.9c0,0.1,0,0.1,0.1,0.1c0.1,0,0.1-0.1,0.1-0.1c0-0.2,0-0.4,0-0.6c0-0.2,0-0.4,0-0.6
		c0-0.1,0-0.1-0.1-0.1c-0.1,0-0.1,0.1-0.1,0.1C-272.9,411-272.9,411.4-272.9,411.9L-272.9,411.9z"/>
	<path class="st0" d="M-270.8,416.2c0,0.1,0,0.2,0.1,0.1c0.1,0,0.1-0.1,0.1-0.2c0-0.2,0-0.4,0-0.6c0-0.2,0-0.4,0-0.6
		c0-0.1,0-0.2-0.1-0.2c-0.1,0-0.1,0.1-0.1,0.1C-270.8,415.3-270.8,415.7-270.8,416.2L-270.8,416.2z"/>
	<path class="st0" d="M-272.4,411.2c0,0.2,0,0.4,0,0.7c0,0,0,0.1,0.1,0.1c0.1,0,0.1-0.1,0.1-0.1c0-0.4,0-0.9,0-1.3
		c0-0.1,0-0.1-0.1-0.1c-0.1,0-0.1,0.1-0.1,0.1C-272.4,410.8-272.4,411-272.4,411.2L-272.4,411.2L-272.4,411.2L-272.4,411.2z"/>
	<path class="st0" d="M-272.1,411.2c0,0.2,0,0.4,0,0.6c0,0.1,0,0.1,0.1,0.1c0.1,0,0.1-0.1,0.1-0.1c0-0.4,0-0.9,0-1.3
		c0-0.1,0-0.1-0.1-0.1c-0.1,0-0.1,0.1-0.1,0.1C-272.1,410.8-272.1,411-272.1,411.2L-272.1,411.2z"/>
	<path class="st0" d="M-275,414.8c-0.1,0-0.1,0.1-0.1,0.1c0,0.2,0,0.4,0,0.7s0,0.4,0,0.6c0,0.1,0,0.1,0.1,0.1c0.1,0,0.1-0.1,0.1-0.1
		c0-0.4,0-0.9,0-1.3C-274.9,414.8-274.9,414.8-275,414.8z"/>
	<path class="st0" d="M-274,414c0,0,0,0.1,0.1,0.1c0.1,0,0.1-0.1,0.1-0.1c0-0.2,0-0.4,0-0.6s0-0.4,0-0.6c0-0.1,0-0.1-0.1-0.1
		c-0.1,0-0.1,0.1-0.1,0.1C-274,413.2-274,413.6-274,414z"/>
	<path class="st0" d="M-277.5,416.3c0.1,0,0.1-0.1,0.1-0.1c0-0.4,0-0.9,0-1.3c0-0.1,0-0.1-0.1-0.1c-0.1,0-0.1,0.1-0.1,0.1
		c0,0.2,0,0.4,0,0.6s0,0.4,0,0.6C-277.5,416.2-277.5,416.3-277.5,416.3L-277.5,416.3z"/>
	<path class="st0" d="M-278.3,416.2c0,0,0,0.1,0.1,0.1c0.1,0,0.1-0.1,0.1-0.1c0-0.2,0-0.4,0-0.6c0-0.2,0-0.4,0-0.6
		c0,0,0-0.1-0.1-0.1c-0.1,0-0.1,0.1-0.1,0.1C-278.3,415.3-278.3,415.8-278.3,416.2L-278.3,416.2z"/>
	<path class="st0" d="M-277.2,416.3c0.1,0,0.1-0.1,0.1-0.1c0-0.4,0-0.9,0-1.3c0-0.1,0-0.1-0.1-0.1c-0.1,0-0.1,0.1-0.1,0.1
		c0,0.2,0,0.4,0,0.6c0,0.2,0,0.4,0,0.6C-277.3,416.2-277.3,416.3-277.2,416.3L-277.2,416.3L-277.2,416.3z"/>
	<path class="st0" d="M-277,416.2c0,0,0,0.1,0.1,0.1c0.1,0,0.1-0.1,0.1-0.1c0-0.4,0-0.9,0-1.3c0,0,0-0.1-0.1-0.1
		c-0.1,0-0.1,0.1-0.1,0.1c0,0.2,0,0.4,0,0.6C-277,415.7-277,416-277,416.2L-277,416.2z"/>
	<path class="st0" d="M-278.6,416.2C-278.6,416.2-278.6,416.3-278.6,416.2c0.1,0.1,0.1,0,0.1,0c0-0.2,0-0.4,0-0.6c0-0.2,0-0.4,0-0.6
		c0,0,0-0.1-0.1-0.1c-0.1,0-0.1,0.1-0.1,0.1C-278.6,415.3-278.6,415.8-278.6,416.2L-278.6,416.2z"/>
	<path class="st0" d="M-276.4,416.2c0,0.1,0,0.1,0.1,0.1c0.1,0,0.1-0.1,0.1-0.1c0-0.2,0-0.4,0-0.6c0-0.2,0-0.4,0-0.6
		c0,0,0-0.1-0.1-0.1c-0.1,0-0.1,0.1-0.1,0.1C-276.4,415.3-276.4,415.7-276.4,416.2z"/>
	<path class="st0" d="M-276.7,415.5c0,0.2,0,0.4,0,0.6c0,0,0,0.1,0.1,0.1c0.1,0,0.1-0.1,0.1-0.1c0-0.4,0-0.9,0-1.3
		c0,0,0-0.1-0.1-0.1c-0.1,0-0.1,0.1-0.1,0.1C-276.7,415.1-276.7,415.3-276.7,415.5L-276.7,415.5L-276.7,415.5z"/>
	<path class="st0" d="M-264.5,417.2c0.1-0.4,0.3-0.4,0.7-0.4c1.2,0,2.2-0.5,2.8-1.7c0.1-0.1,0-0.1-0.1-0.2c-0.8-0.5-1.6-0.6-2.5-0.4
		c-0.1,0-0.2,0.1-0.2-0.1c-0.1-0.7-0.5-1.3-1.1-1.8c-0.2-0.2-0.3-0.3-0.6-0.5c-0.2,0.2-0.4,0.4-0.5,0.6c-0.4,1-0.4,2,0.2,3
		c0.1,0.1,0,0.1-0.1,0.2c-0.2,0.1-0.5,0.2-0.8,0.3c-0.7,0.2-1.5,0.2-2.2,0.2c-0.1,0-0.2,0-0.2-0.2c0-0.6,0-1.2,0-1.8
		c0-0.2-0.1-0.2-0.2-0.2c-0.5,0-1.1,0-1.6,0c-0.3,0-0.3,0-0.3-0.3c0-1.3,0-2.6,0-3.9c0-0.1,0-0.2-0.2-0.2c-0.8,0-1.5,0-2.3,0
		c-0.1,0-0.2,0-0.2,0.2c0,0.6,0,1.2,0,1.8c0,0.2,0,0.2-0.2,0.2c-1.3,0-2.6,0-3.9,0c-0.2,0-0.2,0-0.2,0.2c0,0.6,0,1.2,0,1.8
		c0,0.1,0,0.2-0.2,0.2c-0.6,0-1.2,0-1.8,0c-0.2,0-0.2,0-0.2,0.2c0,0.6,0,1.2,0,1.9c0,0.1,0,0.2-0.2,0.2c-0.5,0-1,0-1.5,0
		c-0.1,0-0.2,0-0.2,0.1c0,0.4-0.1,0.9,0,1.3c0,0.2,0,0.2-0.2,0.2c-0.5-0.1-0.9-0.3-1.3-0.6c0,0.3-0.1,0.5-0.4,0.6
		c-0.3,0.2-0.7,0.2-1,0.3c0.9,0,1.8,0,2.8,0c0.2,0,0.2,0.1,0.2,0.2c0.2,1,0.6,1.8,1.2,2.6c1.2,1.5,2.9,2.2,4.8,2.3
		c1.5,0.1,2.9,0,4.3-0.4c2.8-0.7,5-2.2,6.5-4.6c0.1-0.1,0.1-0.1,0.3-0.1c1.2,0,2.4,0,3.6,0c0.1,0,0.1,0,0.2,0
		c-0.2-0.1-0.5-0.1-0.7-0.2c-0.4-0.1-0.8-0.3-0.7-0.8c-0.1,0.1-0.2,0.2-0.3,0.3c-0.6,0.4-1.3,0.5-2,0.4c-0.1,0-0.1-0.1-0.1-0.1
		C-264.7,417.7-264.6,417.5-264.5,417.2L-264.5,417.2z M-271.2,414.7c0-0.1,0-0.1,0.1-0.1c0.5,0,1.1,0,1.6,0c0.1,0,0.1,0,0.1,0.1
		c0,0.5,0,1.1,0,1.6c0,0.1-0.1,0.1-0.2,0.1c-0.3,0-0.5,0-0.8,0c-0.3,0-0.5,0-0.8,0c-0.1,0-0.2,0-0.2-0.1
		C-271.2,415.8-271.2,415.3-271.2,414.7L-271.2,414.7z M-271.5,414.2c0,0.1,0,0.2-0.2,0.2c-0.5,0-1.1,0-1.6,0
		c-0.1,0-0.1-0.1-0.1-0.2c0-0.3,0-0.5,0-0.8c0-0.3,0-0.5,0-0.8c0-0.1,0-0.2,0.1-0.2c0.5,0,1.1,0,1.6,0c0.1,0,0.2,0,0.2,0.2
		C-271.5,413.1-271.5,413.6-271.5,414.2z M-273.4,411.2c0-0.3,0-0.5,0-0.8c0-0.1,0-0.2,0.2-0.2c0.5,0,1.1,0,1.6,0
		c0.1,0,0.2,0,0.2,0.2c0,0.5,0,1,0,1.6c0,0.1,0,0.2-0.2,0.2c-0.5,0-1.1,0-1.6,0c-0.1,0-0.2,0-0.2-0.2
		C-273.4,411.7-273.4,411.5-273.4,411.2L-273.4,411.2z M-273.4,414.7c0-0.1,0-0.2,0.2-0.2c0.5,0,1.1,0,1.6,0c0.1,0,0.2,0,0.2,0.2
		c0,0.5,0,1,0,1.6c0,0.1,0,0.2-0.2,0.2c-0.3,0-0.5,0-0.8,0c-0.3,0-0.5,0-0.8,0c-0.1,0-0.2,0-0.2-0.2
		C-273.4,415.8-273.4,415.3-273.4,414.7L-273.4,414.7z M-275.4,412.4c0.5,0,1,0,1.6,0c0.1,0,0.2,0,0.2,0.2c0,0.3,0,0.5,0,0.8
		c0,0.3,0,0.5,0,0.8c0,0.1,0,0.2-0.1,0.2c-0.5,0-1.1,0-1.6,0c-0.1,0-0.1,0-0.1-0.2c0-0.5,0-1.1,0-1.6
		C-275.5,412.5-275.5,412.4-275.4,412.4L-275.4,412.4z M-273.7,415.6c0,0.3,0,0.5,0,0.8c0,0.1,0,0.1-0.1,0.1c-0.5,0-1.1,0-1.6,0
		c-0.1,0-0.1,0-0.1-0.1c0-0.5,0-1.1,0-1.6c0-0.1,0-0.1,0.1-0.1c0.5,0,1.1,0,1.6,0c0.1,0,0.1,0.1,0.1,0.2
		C-273.7,415-273.7,415.3-273.7,415.6C-273.7,415.6-273.7,415.6-273.7,415.6z M-277.6,412.4c0.5,0,1.1,0,1.6,0c0.1,0,0.1,0,0.1,0.1
		c0,0.5,0,1.1,0,1.6c0,0.1,0,0.1-0.1,0.1c-0.5,0-1.1,0-1.6,0c-0.1,0-0.1-0.1-0.1-0.2c0-0.3,0-0.5,0-0.8c0-0.3,0-0.5,0-0.8
		C-277.7,412.5-277.7,412.4-277.6,412.4z M-277.5,414.6c0.3,0,0.5,0,0.8,0c0.3,0,0.5,0,0.8,0c0.1,0,0.2,0,0.1,0.2c0,0.5,0,1.1,0,1.6
		c0,0.1,0,0.1-0.2,0.1c-0.5,0-1,0-1.6,0c-0.1,0-0.2,0-0.2-0.2c0-0.5,0-1.1,0-1.6C-277.7,414.6-277.6,414.6-277.5,414.6L-277.5,414.6
		z M-279.9,414.7c0-0.1,0-0.1,0.2-0.1c0.5,0,1,0,1.6,0c0.1,0,0.2,0,0.2,0.2c0,0.5,0,1.1,0,1.6c0,0.1,0,0.2-0.2,0.2
		c-0.3,0-0.5,0-0.8,0s-0.5,0-0.8,0c-0.1,0-0.2,0-0.2-0.2C-279.8,415.8-279.8,415.3-279.9,414.7L-279.9,414.7L-279.9,414.7
		L-279.9,414.7z M-265.6,418.6c-0.5,0.7-1,1.4-1.6,1.9c-0.8,0.7-1.6,1.2-2.6,1.7c-1,0.4-2,0.7-3.1,0.9c-0.5,0.1-1.1,0.1-1.6,0.1l0,0
		c-1.3,0.1-2.6-0.1-3.8-0.6c-0.7-0.3-1.3-0.8-1.9-1.3c0,0-0.1,0-0.1-0.1c0.7,0,1.3,0,2,0c0.5,0,1-0.1,1.5-0.2l0,0l0,0
		c0.1,0,0.1,0,0.2-0.1c0.1,0,0.2-0.1,0.1-0.2c0-0.1-0.1-0.1-0.2-0.1c-0.4,0.1-0.8,0.2-1.3,0.3c-0.3,0-0.7,0.1-1,0.1
		c-0.5,0-1,0-1.5,0c-0.1,0-0.1,0-0.2-0.1c-0.5-0.7-0.8-1.4-0.9-2.2c0-0.1,0-0.1,0.1-0.1c0.3,0,0.5,0,0.8,0c0.1,0,0.1,0,0.2,0
		c4.3,0,8.6,0,12.9,0c0.1,0,0.1,0,0.2,0c0.6,0,1.2,0,1.8,0C-265.6,418.4-265.5,418.5-265.6,418.6L-265.6,418.6L-265.6,418.6z
		 M-265.2,418c-0.1,0.1-0.1,0.1-0.2,0.1c-0.3-0.1-0.5-0.1-0.8-0.3c-0.1-0.1-0.1,0-0.2,0c-0.1,0.1-0.3,0.2-0.5,0.3
		c-0.5,0.2-0.9,0.2-1.4,0.2c-0.6,0-1.1-0.1-1.7-0.2c-0.3-0.1-0.7-0.2-0.9-0.5c-0.1-0.1-0.1,0-0.1,0c-0.6,0.6-1.4,0.7-2.2,0.6
		c-0.5,0-0.9-0.1-1.3-0.3c-0.2-0.1-0.3-0.3-0.5-0.3c-0.1,0-0.3,0.2-0.4,0.3c-0.5,0.2-0.9,0.3-1.4,0.3c-0.6,0.1-1.3,0.1-1.9-0.1
		c-0.3-0.1-0.6-0.2-0.8-0.4c-0.1-0.1-0.1,0-0.2,0c-0.3,0.2-0.6,0.3-0.9,0.3c-0.3,0.1-0.5,0.1-0.8,0.1c-0.1,0-0.1,0-0.1-0.1
		c-0.1-0.4,0-0.8,0-1.1c0-0.1,0.1-0.1,0.2-0.1c0.2,0,0.5,0,0.7,0c0.1,0,0.2,0,0.3,0c4.2,0,8.4,0,12.6,0c0.7,0,1.4-0.1,2.1-0.4
		c0.3-0.1,0.5-0.2,0.7-0.4c0,0,0.1-0.1,0-0.1c-0.4-0.3-0.5-0.8-0.6-1.3c-0.1-0.6,0-1.2,0.3-1.8c0.1-0.2,0.1-0.2,0.3-0.1
		c0.6,0.5,1,1.1,1.1,1.9c0,0.1,0,0.2,0,0.3c0,0,0,0.1,0.1,0.1c0.8-0.4,1.6-0.4,2.5,0c0.2,0.1,0.2,0.1,0.1,0.3
		c-0.4,0.6-1,0.9-1.7,1.1c-0.3,0.1-0.7,0.1-1,0c-0.2,0-0.2,0-0.3,0.2C-264.8,417-265,417.5-265.2,418L-265.2,418L-265.2,418
		L-265.2,418z"/>
	<path class="st0" d="M-279.7,416.2c0,0,0,0.1,0.1,0.1c0.1,0,0.1-0.1,0.1-0.1c0-0.4,0-0.9,0-1.3c0,0,0-0.1-0.1-0.1
		c-0.1,0-0.1,0.1-0.1,0.1c0,0.2,0,0.4,0,0.6C-279.7,415.7-279.7,416-279.7,416.2z"/>
	<path class="st0" d="M-278.8,416.2c0,0,0,0.1,0.1,0.1c0.1,0,0.1-0.1,0.1-0.1c0-0.4,0-0.9,0-1.3c0,0,0-0.1-0.1-0.1
		c-0.1,0-0.1,0.1-0.1,0.1c0,0.2,0,0.4,0,0.6C-278.8,415.7-278.8,416-278.8,416.2L-278.8,416.2z"/>
	<path class="st0" d="M-279.3,416.3c0.1,0,0.1-0.1,0.1-0.1c0-0.2,0-0.4,0-0.6s0-0.4,0-0.6c0,0,0-0.1-0.1-0.1c-0.1,0-0.1,0.1-0.1,0.1
		c0,0.4,0,0.9,0,1.3C-279.4,416.2-279.4,416.3-279.3,416.3z"/>
	<path class="st0" d="M-274.7,414.8c-0.1,0-0.1,0.1-0.1,0.1c0,0.4,0,0.9,0,1.3c0,0.1,0,0.1,0.1,0.1c0.1,0,0.1-0.1,0.1-0.1
		c0-0.2,0-0.4,0-0.6c0-0.2,0-0.4,0-0.7C-274.6,414.8-274.6,414.8-274.7,414.8L-274.7,414.8z"/>
	<path class="st0" d="M-279.1,416.3c0.1,0,0.1-0.1,0.1-0.1c0-0.2,0-0.4,0-0.6c0-0.2,0-0.4,0-0.7c0,0,0-0.1-0.1-0.1
		c-0.1,0-0.1,0.1-0.1,0.1c0,0.4,0,0.9,0,1.3C-279.1,416.2-279.1,416.3-279.1,416.3L-279.1,416.3z"/>
	<path class="st0" d="M-273.9,414.8c-0.1,0-0.1,0.1-0.1,0.1c0,0.2,0,0.4,0,0.6c0,0.2,0,0.4,0,0.6c0,0,0,0.1,0.1,0.1
		c0.1,0,0.1-0.1,0.1-0.1c0-0.4,0-0.9,0-1.3C-273.8,414.8-273.8,414.8-273.9,414.8L-273.9,414.8z"/>
	<path class="st0" d="M-269.8,416.3c0.1,0,0.1-0.1,0.1-0.1c0-0.4,0-0.9,0-1.3c0-0.1,0-0.1-0.1-0.1c-0.1,0-0.1,0.1-0.1,0.1
		c0,0.2,0,0.4,0,0.6c0,0.2,0,0.4,0,0.7C-269.9,416.2-269.9,416.3-269.8,416.3z"/>
	<path class="st0" d="M-276,414.1c0.1,0,0.1-0.1,0.1-0.1c0-0.2,0-0.4,0-0.7s0-0.4,0-0.7c0,0,0-0.1-0.1-0.1c-0.1,0-0.1,0-0.1,0.1
		c0,0.4,0,0.9,0,1.3C-276.1,414.1-276.1,414.1-276,414.1L-276,414.1z"/>
	<path class="st0" d="M-274.1,414.9c0-0.1,0-0.1-0.1-0.1c-0.1,0-0.1,0.1-0.1,0.1c0,0.4,0,0.9,0,1.3c0,0.1,0,0.1,0.1,0.1
		c0.1,0,0.1-0.1,0.1-0.1c0-0.2,0-0.4,0-0.6C-274.1,415.3-274.1,415.1-274.1,414.9L-274.1,414.9z"/>
	<path class="st0" d="M-276.1,415.5c0,0.2,0,0.4,0,0.6c0,0,0,0.1,0.1,0.1c0.1,0,0.1-0.1,0.1-0.1c0-0.4,0-0.9,0-1.3
		c0,0,0-0.1-0.1-0.1c-0.1,0-0.1,0.1-0.1,0.1C-276.1,415.1-276.1,415.3-276.1,415.5L-276.1,415.5z"/>
	<path class="st0" d="M-276.4,414c0,0,0,0.1,0.1,0.1c0.1,0,0.1-0.1,0.1-0.1c0-0.2,0-0.4,0-0.6c0-0.2,0-0.4,0-0.7c0,0,0-0.1-0.1-0.1
		c-0.1,0-0.1,0.1-0.1,0.1C-276.4,413.2-276.4,413.6-276.4,414L-276.4,414z"/>
	<path class="st0" d="M-274.5,414.8c-0.1,0-0.1,0.1-0.1,0.1c0,0.2,0,0.4,0,0.6c0,0.2,0,0.4,0,0.7c0,0.1,0,0.1,0.1,0.1
		c0.1,0,0.1-0.1,0.1-0.1c0-0.4,0-0.9,0-1.3C-274.4,414.8-274.4,414.8-274.5,414.8z"/>
	<path class="st0" d="M-269.6,416.3c0.1,0,0.1-0.1,0.1-0.1c0-0.2,0-0.4,0-0.6c0-0.2,0-0.4,0-0.7c0-0.1,0-0.1-0.1-0.1
		c-0.1,0-0.1,0.1-0.1,0.1c0,0.4,0,0.9,0,1.3C-269.6,416.2-269.7,416.3-269.6,416.3z"/>
	<path class="st0" d="M-277.5,414.2c0.1,0,0.1,0,0.1-0.1c0-0.4,0-0.9,0-1.3c0-0.1,0-0.1-0.1-0.1c-0.1,0-0.1,0.1-0.1,0.1
		c0,0.2,0,0.4,0,0.6c0,0.2,0,0.4,0,0.7C-277.5,414.1-277.5,414.2-277.5,414.2L-277.5,414.2z"/>
	<path class="st0" d="M-277.2,414.2c0.1,0,0.1-0.1,0.1-0.1c0-0.4,0-0.9,0-1.3c0-0.1,0-0.1-0.1-0.1c-0.1,0-0.1,0.1-0.1,0.1
		c0,0.2,0,0.4,0,0.6c0,0.2,0,0.4,0,0.7C-277.2,414.1-277.3,414.2-277.2,414.2z"/>
	<path class="st0" d="M-276.7,414c0,0,0,0.1,0.1,0.1c0.1,0,0.1-0.1,0.1-0.1c0-0.2,0-0.4,0-0.7c0-0.2,0-0.4,0-0.6c0,0,0-0.1-0.1-0.1
		c-0.1,0-0.1,0.1-0.1,0.1C-276.7,413.2-276.7,413.6-276.7,414z"/>
	<path class="st0" d="M-276.9,414.1c0.1,0,0.1-0.1,0.1-0.1c0-0.2,0-0.4,0-0.6s0-0.4,0-0.6c0,0,0-0.1-0.1-0.1c-0.1,0-0.1,0.1-0.1,0.1
		c0,0.4,0,0.9,0,1.3C-277,414.1-277,414.1-276.9,414.1L-276.9,414.1z"/>
	<path class="st0" d="M-275.4,420c0-0.3-0.2-0.5-0.5-0.5c-0.3,0-0.5,0.2-0.5,0.5c0,0.3,0.2,0.5,0.5,0.5
		C-275.6,420.5-275.4,420.3-275.4,420z M-275.9,420.4c-0.2,0-0.4-0.2-0.4-0.4c0-0.2,0.1-0.4,0.3-0.4c0.1,0,0.2,0,0.1,0.1
		c0,0.1,0,0.2,0.2,0.2c0.1-0.1,0.1,0,0.1,0.1C-275.6,420.2-275.7,420.4-275.9,420.4z"/>
</g>
</svg>
