<?xml version="1.0" encoding="iso-8859-1"?>
<!-- Generator: Adobe Illustrator 19.0.0, SVG Export Plug-In . SVG Version: 6.00 Build 0)  -->
<svg version="1.1" id="Layer_1" xmlns="http://www.w3.org/2000/svg" xmlns:xlink="http://www.w3.org/1999/xlink" x="0px" y="0px"
	 viewBox="0 0 49.388 67" style="enable-background:new 0 0 49.388 67;" xml:space="preserve">
<g>
	<path style="display:none;" d="M49.388,39c0,9.268,0,18.536,0,28c-14.333,0-28.666,0-43,0c1.003-1.707,2.192-3.333,2.978-5.135
		c4.853-11.119,9.599-22.285,14.416-33.42c1.575-3.64,3.255-7.235,4.851-10.77c10.497,1.471,16.303,11.923,15.439,20.402
		c-1.239,12.152-9.685,18.034-25.243,17.636c-0.409,1.177-0.855,2.46-1.3,3.739c10.542,3.691,22.109-0.603,27.838-10.387
		C47.171,45.982,48.072,42.37,49.388,39z"/>
	<path style="display:none;" d="M2.388,67c-0.995,0-1.99,0-2.989,0C-0.605,44.782-0.605,22.563-0.605,0C9.718,0,20.053,0,30.388,0
		c-0.481,1.408-0.868,2.856-1.457,4.218c-6.13,14.171-12.291,28.328-18.448,42.487c-0.23,0.528-0.497,1.04-0.822,1.715
		c-7.934-9.285-5.316-21.043,6.606-30.229c0.457-1.37,1.002-3.007,1.792-5.375C9.452,15.755,4.017,20.868,1.412,28.503
		c-3.233,9.477-0.763,17.986,5.852,25.389c-0.732,1.843-1.436,3.516-2.063,5.218C4.236,61.73,3.323,64.369,2.388,67z"/>
	<path style="fill:#FFFFFF;" d="M2.388,67c0.935-2.631,1.848-5.27,2.814-7.89c0.627-1.702,1.331-3.375,2.063-5.218
		C0.649,46.489-1.821,37.98,1.412,28.503c2.605-7.635,8.04-12.748,16.646-15.687c-0.79,2.369-1.336,4.006-1.792,5.375
		C4.345,27.377,1.727,39.135,9.661,48.42c0.325-0.675,0.592-1.187,0.822-1.715c6.156-14.159,12.318-28.316,18.448-42.487
		c0.589-1.361,0.976-2.81,1.457-4.218c1.667,0,3.333,0,5,0c-1.404,4.151-2.808,8.303-4.236,12.528
		c1.318,0.599,2.687,1.163,4.004,1.829c7.227,3.654,11.712,9.435,13.433,17.363c0.17,0.781,0.528,1.521,0.799,2.28
		c0,1.667,0,3.333,0,5c-1.315,3.37-2.217,6.982-4.022,10.065c-5.729,9.784-17.296,14.078-27.838,10.387
		c0.444-1.278,0.89-2.561,1.3-3.739c15.558,0.397,24.004-5.484,25.243-17.636c0.865-8.479-4.941-18.931-15.439-20.402
		c-1.596,3.535-3.276,7.13-4.851,10.77c-4.817,11.135-9.563,22.301-14.416,33.42C8.579,63.667,7.39,65.293,6.388,67
		C5.054,67,3.721,67,2.388,67z"/>
	<path style="display:none;" d="M49.388,34c-0.271-0.759-0.629-1.499-0.799-2.28c-1.721-7.928-6.206-13.709-13.433-17.363
		c-1.317-0.666-2.686-1.23-4.004-1.829C32.58,8.303,33.984,4.151,35.388,0c4.667,0,9.333,0,14,0
		C49.388,11.333,49.388,22.667,49.388,34z"/>
</g>
</svg>
